<svg xmlns="http://www.w3.org/2000/svg" viewBox="0 0 100 100">
  <defs>
    <linearGradient id="cloud" x1="0%" y1="0%" x2="100%" y2="100%">
      <stop offset="0%" style="stop-color:#a855f7"/>
      <stop offset="100%" style="stop-color:#7c3aed"/>
    </linearGradient>
  </defs>
  <rect width="100" height="100" rx="20" fill="url(#cloud)"/>
  <path d="M70 55c0-8.3-6.7-15-15-15-1.2 0-2.4.1-3.5.4C49.5 33.5 43.3 28 36 28c-9.4 0-17 7.6-17 17 0 .7 0 1.4.1 2.1C13.8 48.6 10 53.7 10 60c0 8.3 6.7 15 15 15h40c8.3 0 15-6.7 15-15 0-5.5-3-10.3-7.4-12.9-.4-2.4-.6-4.8-.6-7.1z" fill="white"/>
</svg>
